<svg width="{16}" height="{16}" viewBox="0 0 24 24" xmlns="http://www.w3.org/2000/svg" version="1.1" xmlnsXlink="http://www.w3.org/1999/xlink" className=""><path d="M13.103 2.696c1.07-.524 2.003-.696 3.45-.696C20.258 2.015 23 5.14 23 9.12c0 3.038-1.694 5.972-4.849 8.81-1.656 1.49-3.77 2.963-5.285 3.747l-.866.45-.866-.45c-1.515-.784-3.63-2.258-5.285-3.747C2.694 15.092 1 12.158 1 9.12 1 5.097 3.716 2 7.455 2c1.395 0 2.376.189 3.467.728a6.3 6.3 0 0 1 1.068.668 6.17 6.17 0 0 1 1.113-.7Z" fill="#EE2624" fillRule="nonzero"/></svg>