<svg viewBox="0 0 23 21" xmlns="http://www.w3.org/2000/svg">
    <path d="M18.5 0A1.5 1.5 0 0120 1.5V12c-.49-.07-1.01-.07-1.5 0V1.5H2v12.65l3.395-3.408a.75.75 0 01.958-.087l.104.087L7.89 12.18l3.687-5.21a.75.75 0 01.96-.086l.103.087 3.391 3.405c.81.813.433 2.28-.398 3.07A5.235 5.235 0 0014.053 18H2a1.5 1.5 0 01-1.5-1.5v-15A1.5 1.5 0 012 0h16.5z" fill="#ee4d2d"></path>
    <path d="M6.5 4.5a1.5 1.5 0 110 3 1.5 1.5 0 010-3zM18.5 14.25a.75.75 0 011.5 0v2.25h2.25a.75.75 0 010 1.5H20v2.25a.75.75 0 01-1.5 0V18h-2.25a.75.75 0 010-1.5h2.25v-2.25z" fill="#ee4d2d"></path>
</svg>